<svg width="400" height="100" viewBox="0 0 400 100" xmlns="http://www.w3.org/2000/svg">
    <!-- Background -->
    <rect width="100%" height="100%" fill="#FFFFFF" />

    <!-- C Glyph -->
    <g transform="translate(30, 25)">
        <!-- Outer C shape (Light Ochre) -->
        <path d="M35,0 C15.66,0 0,15.66 0,35 S15.66,70 35,70 L35,60 C21.21,60 10,48.79 10,35 S21.21,10 35,10 L35,0 Z" fill="#E0C9A6" />
        <!-- Inner Blueprint element (Blueprint Blue) -->
        <path d="M30,20 L20,20 L20,25 L30,25 Z M30,30 L20,30 L20,35 L30,35 Z M30,40 L20,40 L20,45 L30,45 Z M40,27.5 L35,22.5 L35,32.5 Z" fill="#0072CE" />
    </g>

    <!-- Text CertusBuild (Navy Blue) -->
    <text x="100" y="60" font-family="Arial, sans-serif" font-size="30" font-weight="bold" fill="#0A2342">CertusBuild</text>
</svg>

