<svg xmlns="http://www.w3.org/2000/svg" width="200" height="50" viewBox="0 0 200 50">
  <!-- Logo Shape - "C" letter stylized as a blueprint/construction element -->
  <path d="M30 10 C 18 10, 10 18, 10 25 C 10 32, 18 40, 30 40 L 30 35 C 20 35, 15 30, 15 25 C 15 20, 20 15, 30 15 Z" 
        fill="#5B8C5A" stroke="#0A2342" stroke-width="2" />
  
  <!-- Construction element lines -->
  <line x1="32" y1="10" x2="32" y2="40" stroke="#0A2342" stroke-width="1.5" />
  <line x1="36" y1="10" x2="36" y2="40" stroke="#0A2342" stroke-width="1.5" />
  <line x1="40" y1="10" x2="40" y2="40" stroke="#0A2342" stroke-width="1.5" />
  
  <!-- Measuring points on the lines -->
  <circle cx="32" cy="15" r="1.5" fill="#0A2342" />
  <circle cx="32" cy="25" r="1.5" fill="#0A2342" />
  <circle cx="32" cy="35" r="1.5" fill="#0A2342" />
  
  <circle cx="36" cy="20" r="1.5" fill="#0A2342" />
  <circle cx="36" cy="30" r="1.5" fill="#0A2342" />
  
  <circle cx="40" cy="15" r="1.5" fill="#0A2342" />
  <circle cx="40" cy="25" r="1.5" fill="#0A2342" />
  <circle cx="40" cy="35" r="1.5" fill="#0A2342" />
  
  <!-- Text part of the logo -->
  <text x="50" y="30" font-family="'Segoe UI', sans-serif" font-weight="bold" font-size="20" fill="#0A2342">
    CertusBuild
  </text>
</svg>
